<svg xmlns="http://www.w3.org/2000/svg" width="1000" height="236" viewBox="0 0 1000 236" fill="none">
<style>
text { font-family: -apple-system, BlinkMacSystemFont, 'Segoe UI', 'Noto Sans', Helvetica, Arial, sans-serif; }
.mono { font-family: ui-monospace, SFMono-Regular, 'SF Mono', Menlo, Consolas, 'Liberation Mono', monospace; }
@keyframes rise { from { opacity: 0; transform: translateY(8px); } to { opacity: 1; transform: none; } }
@keyframes fade { from { opacity: 0; } to { opacity: 1; } }
@keyframes blink { 0%, 49% { opacity: 1; } 50%, 100% { opacity: 0; } }
@keyframes pulse { 0% { opacity: .6; transform: scale(1); } 100% { opacity: 0; transform: scale(2.4); } }
.rise { opacity: 0; animation: rise .6s cubic-bezier(.25,.46,.45,.94) forwards; }
.fade { opacity: 0; animation: fade .5s ease-out forwards; }
.pulse { transform-box: fill-box; transform-origin: center; animation: pulse 2s ease-out infinite; }
@media (prefers-reduced-motion: reduce) {
  * { animation: none !important; }
  .rise, .fade { opacity: 1; }
}
</style>
<defs></defs>
<g class="rise" style="animation-delay:0.05s">
<rect x="0.5" y="0.5" width="231.0" height="235.0" rx="12" fill="rgba(110,118,129,0.035)" stroke="#3d444d"/>
<g transform="translate(32.0 32.0) scale(0.8333333333333334)" stroke="#9198a1" stroke-width="2" stroke-linecap="round" stroke-linejoin="round" fill="none"><path d="M10 14.66v1.626a2 2 0 0 1-.976 1.696A5 5 0 0 0 7 21.978"/><path d="M14 14.66v1.626a2 2 0 0 0 .976 1.696A5 5 0 0 1 17 21.978"/><path d="M18 9h1.5a1 1 0 0 0 0-5H18"/><path d="M4 22h16"/><path d="M6 9a6 6 0 0 0 12 0V3a1 1 0 0 0-1-1H7a1 1 0 0 0-1 1z"/><path d="M6 9H4.5a1 1 0 0 1 0-5H6"/></g>
<text x="30" y="138" font-size="60" font-weight="600" letter-spacing="-1.5" fill="#f0f6fc">7×</text>
<text x="32" y="178" font-size="15" font-weight="600" fill="#f0f6fc">Hackathon wins</text>
<text x="32" y="200" font-size="13" fill="#9198a1">across AI and Web3</text>
</g>
<g class="rise" style="animation-delay:0.15s">
<rect x="256.5" y="0.5" width="231.0" height="235.0" rx="12" fill="rgba(110,118,129,0.035)" stroke="#3d444d"/>
<g transform="translate(288.0 32.0) scale(0.8333333333333334)" stroke="#9198a1" stroke-width="2" stroke-linecap="round" stroke-linejoin="round" fill="none"><path d="m16 18 6-6-6-6"/><path d="m8 6-6 6 6 6"/></g>
<text x="286" y="138" font-size="60" font-weight="600" letter-spacing="-1.5" fill="#f0f6fc">3+</text>
<text x="288" y="178" font-size="15" font-weight="600" fill="#f0f6fc">Years building</text>
<text x="288" y="200" font-size="13" fill="#9198a1">AI into real products</text>
</g>
<g class="rise" style="animation-delay:0.25s">
<rect x="512.5" y="0.5" width="487.0" height="235.0" rx="12" fill="rgba(110,118,129,0.035)" stroke="#3d444d"/>
<g transform="translate(544.0 33.0) scale(0.6666666666666666)" stroke="#9198a1" stroke-width="2" stroke-linecap="round" stroke-linejoin="round" fill="none"><path d="M11.017 2.814a1 1 0 0 1 1.966 0l1.051 5.558a2 2 0 0 0 1.594 1.594l5.558 1.051a1 1 0 0 1 0 1.966l-5.558 1.051a2 2 0 0 0-1.594 1.594l-1.051 5.558a1 1 0 0 1-1.966 0l-1.051-5.558a2 2 0 0 0-1.594-1.594l-5.558-1.051a1 1 0 0 1 0-1.966l5.558-1.051a2 2 0 0 0 1.594-1.594z"/><path d="M20 2v4"/><path d="M22 4h-4"/><circle cx="4" cy="20" r="2"/></g><text x="568.0" y="46" font-size="15" font-weight="600" fill="#f0f6fc">Off-screen</text>
<text x="968.0" y="46" font-size="12.5" font-weight="600" text-anchor="end" fill="#9198a1">What keeps me grounded</text>
<rect x="544.5" y="72.5" width="37" height="37" rx="8" fill="#212830" stroke="#3d444d"/>
<g transform="translate(554.0 82.0) scale(0.75)" stroke="#9198a1" stroke-width="2" stroke-linecap="round" stroke-linejoin="round" fill="none"><path d="M12 7v14"/><path d="M3 18a1 1 0 0 1-1-1V4a1 1 0 0 1 1-1h5a4 4 0 0 1 4 4 4 4 0 0 1 4-4h5a1 1 0 0 1 1 1v13a1 1 0 0 1-1 1h-6a3 3 0 0 0-3 3 3 3 0 0 0-3-3z"/></g>
<text x="598" y="88" font-size="15" font-weight="600" fill="#f0f6fc">Reading</text>
<text x="598" y="106" font-size="13" fill="#9198a1">finance, economics, politics &amp; history</text>
<rect x="544.5" y="122.5" width="37" height="37" rx="8" fill="#212830" stroke="#3d444d"/>
<g transform="translate(554.0 132.0) scale(0.75)" stroke="#9198a1" stroke-width="2" stroke-linecap="round" stroke-linejoin="round" fill="none"><path d="M17.8 19.2 16 11l3.5-3.5C21 6 21.5 4 21 3c-1-.5-3 0-4.5 1.5L13 8 4.8 6.2c-.5-.1-.9.1-1.1.5l-.3.5c-.2.5-.1 1 .3 1.3L9 12l-2 3H4l-1 1 3 2 2 3 1-1v-3l3-2 3.5 5.3c.3.4.8.5 1.3.3l.5-.2c.4-.3.6-.7.5-1.2z"/></g>
<text x="598" y="138" font-size="15" font-weight="600" fill="#f0f6fc">Travel</text>
<text x="598" y="156" font-size="13" fill="#9198a1">seeing how other places work</text>
<rect x="544.5" y="172.5" width="37" height="37" rx="8" fill="#212830" stroke="#3d444d"/>
<g transform="translate(554.0 182.0) scale(0.75)" stroke="#9198a1" stroke-width="2" stroke-linecap="round" stroke-linejoin="round" fill="none"><path d="M13.997 4a2 2 0 0 1 1.76 1.05l.486.9A2 2 0 0 0 18.003 7H20a2 2 0 0 1 2 2v9a2 2 0 0 1-2 2H4a2 2 0 0 1-2-2V9a2 2 0 0 1 2-2h1.997a2 2 0 0 0 1.759-1.048l.489-.904A2 2 0 0 1 10.004 4z"/><circle cx="12" cy="13" r="3"/></g>
<text x="598" y="188" font-size="15" font-weight="600" fill="#f0f6fc">Photography</text>
<text x="598" y="206" font-size="13" fill="#9198a1">slowing down to notice the details</text>
</g>
</svg>
